<svg width="102" height="91" viewBox="0 0 102 91" fill="none" xmlns="http://www.w3.org/2000/svg">
<path d="M48.3334 33.4561C49.1716 32.2344 50.0847 32.0801 50.8258 32.0801C51.5668 32.0801 52.7976 32.2344 53.6357 33.4561C60.2084 42.4088 71.0599 60.2483 79.0662 73.4128C84.2891 81.9907 88.2988 88.584 89.1237 89.422C92.2116 92.5709 96.4463 90.6083 98.9078 87.036C101.329 83.5211 102 81.0513 102 78.4184C102 76.6235 66.8957 11.8812 63.3624 6.49187C59.9658 1.30984 58.8541 0 53.0402 0H48.6819C42.8812 0 42.0431 1.30984 38.642 6.49187C35.1087 11.8812 0 76.6235 0 78.414C0 81.0513 0.674913 83.5211 3.10107 87.036C5.56251 90.6083 9.79726 92.5709 12.8851 89.4176C13.7056 88.5796 17.7153 81.9907 22.9382 73.4084C30.9445 60.2482 41.7608 42.4088 48.3378 33.4516L48.3334 33.4561Z" fill="#1071B8"/>
</svg>
