<svg width="100" height="100" viewBox="0 0 100 100" fill="none" xmlns="http://www.w3.org/2000/svg">
<path d="M100 77.4844C96.3625 78.4094 94.1125 77.525 92.0937 74.4937L77.7375 54.6312L75.6625 51.8812L58.8969 74.5594C56.9813 77.2875 54.9719 78.475 51.3969 77.5094L72.8656 48.6906L52.8781 22.6594C56.3156 21.9906 58.6906 22.3312 60.8 25.4094L75.6906 45.5187L90.6906 25.5187C92.6125 22.7906 94.6781 21.7531 98.1281 22.7594L90.3781 33.0344L79.8781 46.7062C78.6281 48.2687 78.8 49.3375 79.95 50.8469L100 77.4844ZM0.025 48.2094L1.78125 39.5719C6.5625 22.4781 26.1563 15.375 39.6688 25.9375C47.5656 32.15 49.5281 40.9375 49.1375 50.7812H4.625C3.95625 68.5 16.7094 79.1937 32.9688 73.7375C38.6719 71.8219 42.0312 67.3562 43.7125 61.7687C44.5656 58.9687 45.9781 58.5312 48.6094 59.3312C47.2656 66.3187 44.2344 72.1562 37.8281 75.8094C28.2562 81.2781 14.5937 79.5094 7.40625 71.9094C3.125 67.5 1.35625 61.9125 0.5625 55.9375C0.4375 54.95 0.1875 54.0094 0 53.0625C0.0166667 51.4458 0.025 49.8291 0.025 48.2125V48.2094ZM4.70625 47.0219H44.9313C44.6688 34.2094 36.6906 25.1094 25.7875 25.0312C13.8187 24.9375 5.225 33.8219 4.70625 47.0219Z" fill="white"/>
</svg>
