<svg width="93" height="102" viewBox="0 0 93 102" fill="none" xmlns="http://www.w3.org/2000/svg">
<path d="M91.8832 41.4233C91.8832 35.3681 84.2813 29.6295 72.6258 26.0708C75.3156 14.221 74.1202 4.79328 68.8526 1.77491C67.6385 1.0669 66.2192 0.731513 64.6688 0.731513V4.88644C65.528 4.88644 66.2192 5.05413 66.7981 5.37085C69.3384 6.82413 70.4406 12.3578 69.581 19.4751C69.376 21.2266 69.0397 23.0711 68.6288 24.9529C64.9675 24.0586 60.9704 23.3692 56.7678 22.9221C54.2464 19.4751 51.6313 16.345 48.9975 13.6061C55.0867 7.96068 60.8025 4.86778 64.6876 4.86778V0.712891C59.5507 0.712891 52.8267 4.36474 46.0279 10.6995C39.2287 4.40199 32.5047 0.787425 27.3682 0.787425V4.94231C31.2345 4.94231 36.9687 8.01659 43.0579 13.6248C40.4429 16.3637 37.8279 19.4751 35.3436 22.9221C31.1222 23.3692 27.1251 24.0586 23.4643 24.9715C23.0345 23.1084 22.7171 21.301 22.4928 19.5683C21.6152 12.451 22.6983 6.91728 25.2201 5.44539C25.7802 5.11 26.5086 4.96098 27.3682 4.96098V0.806048C25.799 0.806048 24.3794 1.14143 23.1468 1.84945C17.898 4.86778 16.7214 14.2769 19.4296 26.0895C7.8117 29.6668 0.246948 35.3868 0.246948 41.4233C0.246948 47.479 7.84904 53.2176 19.5043 56.776C16.8146 68.6261 18.0099 78.0535 23.2776 81.0719C24.4917 81.7798 25.911 82.1152 27.4801 82.1152C32.6166 82.1152 39.3411 78.4634 46.1399 72.1286C52.9386 78.4264 59.6631 82.041 64.7996 82.041C66.3683 82.041 67.788 81.7056 69.0209 80.9974C74.2694 77.9789 75.4463 68.5698 72.7378 56.7576C84.3184 53.1988 91.8832 47.4602 91.8832 41.4233ZM67.5641 28.996C66.8729 31.3997 66.0137 33.8774 65.0422 36.3555C64.2767 34.8652 63.4735 33.3745 62.5955 31.8838C61.7364 30.3934 60.8209 28.9401 59.9058 27.5241C62.5579 27.9154 65.117 28.3998 67.5641 28.996ZM59.009 48.8388C57.5522 51.3544 56.0582 53.7392 54.5078 55.9565C51.7245 56.1985 48.9044 56.3289 46.0651 56.3289C43.2446 56.3289 40.4241 56.1985 37.6599 55.9748C36.1096 53.7575 34.5964 51.3915 33.1395 48.8947C31.7199 46.4541 30.4314 43.976 29.2544 41.4795C30.4126 38.9827 31.7199 36.4859 33.1212 34.0453C34.578 31.5301 36.072 29.1451 37.6224 26.9279C40.4057 26.6856 43.2258 26.5552 46.0651 26.5552C48.8856 26.5552 51.7061 26.6856 54.4702 26.9093C56.0206 29.1265 57.5338 31.4926 58.9907 33.9894C60.4103 36.43 61.6988 38.9081 62.8758 41.405C61.6988 43.9014 60.4103 46.3982 59.009 48.8388ZM65.0422 46.417C66.0228 48.8451 66.8831 51.3198 67.6201 53.8321C65.173 54.4283 62.5955 54.9316 59.9246 55.3228C60.8397 53.8883 61.7548 52.4164 62.6143 50.9069C63.4735 49.4167 64.2767 47.9072 65.0422 46.417ZM46.1023 66.2971C44.3652 64.5081 42.6281 62.5146 40.9098 60.3348C42.5909 60.4094 44.3092 60.4652 46.0463 60.4652C47.8022 60.4652 49.5393 60.4281 51.2392 60.3348C49.6358 62.4131 47.921 64.4035 46.1023 66.2971ZM32.2056 55.3228C29.5534 54.9316 26.9944 54.447 24.5477 53.8508C25.2385 51.4473 26.0981 48.9692 27.0691 46.4911C27.8351 47.9818 28.6383 49.4725 29.5158 50.9628C30.3938 52.4535 31.2905 53.9067 32.2056 55.3228ZM46.0091 16.55C47.7462 18.3386 49.4833 20.3322 51.2016 22.5121C49.5205 22.4376 47.8022 22.3817 46.0651 22.3817C44.3092 22.3817 42.5721 22.419 40.8726 22.5121C42.4758 20.4339 44.1905 18.4436 46.0091 16.55ZM32.1868 27.5241C31.2717 28.9588 30.3566 30.4307 29.4975 31.9396C28.6383 33.4303 27.8351 34.921 27.0691 36.4113C26.0886 33.9832 25.2284 31.5085 24.4917 28.996C26.9384 28.4184 29.5158 27.9154 32.1868 27.5241ZM15.283 50.8511C8.67093 48.0377 4.39355 44.3488 4.39355 41.4233C4.39355 38.4982 8.67093 34.7906 15.283 31.9959C16.8893 31.3064 18.6452 30.6915 20.4571 30.1139C21.5217 33.7657 22.9225 37.5666 24.6596 41.4608C22.9413 45.3362 21.5589 49.1184 20.513 52.7518C18.664 52.1739 16.9081 51.5406 15.283 50.8511ZM25.3321 77.476C22.7918 76.0228 21.6896 70.4892 22.5491 63.3716C22.7546 61.6205 23.0904 59.7757 23.5014 57.8938C27.1627 58.7883 31.1598 59.4778 35.3624 59.9248C37.8838 63.3716 40.4988 66.5017 43.1326 69.2406C37.0435 74.8863 31.3277 77.9789 27.4425 77.9789C26.6022 77.9606 25.8926 77.7927 25.3321 77.476ZM69.6374 63.2787C70.5149 70.3959 69.4319 75.9295 66.9101 77.4015C66.35 77.7368 65.6215 77.886 64.762 77.886C60.8956 77.886 55.1615 74.8117 49.0723 69.2035C51.6873 66.4646 54.3023 63.3532 56.7866 59.9061C61.008 59.459 65.0051 58.7695 68.6659 57.8567C69.0957 59.7386 69.4319 61.5459 69.6374 63.2787ZM76.8284 50.8511C75.2221 51.5406 73.4662 52.1556 71.6543 52.733C70.5897 49.0813 69.1888 45.2804 67.4518 41.3862C69.1705 37.5108 70.5525 33.7286 71.5984 30.0953C73.4478 30.6729 75.2033 31.3064 76.8472 31.9959C83.4593 34.8089 87.7366 38.4982 87.7366 41.4233C87.7178 44.3488 83.4405 48.0564 76.8284 50.8511Z" fill="#61DAFB"/>
<path d="M46.0463 49.9383C50.7609 49.9383 54.5826 46.1262 54.5826 41.4233C54.5826 36.7208 50.7609 32.9087 46.0463 32.9087C41.3321 32.9087 37.5104 36.7208 37.5104 41.4233C37.5104 46.1262 41.3321 49.9383 46.0463 49.9383ZM4.40794 96.7758H1.59014V101.617H0V89.6502H3.97127C5.32246 89.6502 6.36062 89.9573 7.08565 90.571C7.81619 91.1843 8.18148 92.0775 8.18148 93.2499C8.18148 93.9952 7.97824 94.6443 7.57177 95.198C7.17081 95.7513 6.61055 96.165 5.89099 96.4387L8.70879 101.518V101.617H7.01151L4.40794 96.7758ZM1.59014 95.4855H4.02072C4.80618 95.4855 5.42959 95.2826 5.89099 94.8772C6.35786 94.4719 6.5913 93.9294 6.5913 93.2499C6.5913 92.5104 6.36885 91.9434 5.92395 91.5488C5.48452 91.1543 4.84737 90.9543 4.01245 90.9489H1.59014V95.4855ZM13.8666 101.781C12.6581 101.781 11.6749 101.387 10.9169 100.598C10.1588 99.803 9.77985 98.7427 9.77985 97.417V97.1374C9.77985 96.2554 9.94738 95.4693 10.2824 94.7789C10.623 94.0827 11.0954 93.5403 11.6996 93.1516C12.3093 92.757 12.9684 92.5595 13.677 92.5595C14.8361 92.5595 15.737 92.9403 16.3793 93.7019C17.0221 94.4635 17.3433 95.5538 17.3433 96.9729V97.6057H11.3041C11.3261 98.4827 11.5815 99.1922 12.0703 99.7347C12.5647 100.271 13.1909 100.54 13.9489 100.54C14.4873 100.54 14.943 100.43 15.3164 100.211C15.6902 99.9922 16.0168 99.7018 16.2971 99.3401L17.228 100.063C16.4808 101.208 15.3606 101.781 13.8666 101.781ZM13.677 93.809C13.0618 93.809 12.5455 94.0336 12.128 94.4827C11.7106 94.9268 11.4524 95.5513 11.3535 96.3567H15.8192V96.2417C15.7754 95.4693 15.5666 94.8718 15.1932 94.4498C14.8193 94.0227 14.314 93.809 13.677 93.809ZM24.6187 101.617C24.5305 101.441 24.4591 101.129 24.4044 100.68C23.6956 101.414 22.8498 101.781 21.8667 101.781C20.9879 101.781 20.2657 101.534 19.6998 101.041C19.1397 100.543 18.8594 99.9126 18.8594 99.151C18.8594 98.2252 19.2111 97.5074 19.9141 96.9979C20.6224 96.4825 21.6169 96.225 22.8966 96.225H24.3798V95.5268C24.3798 94.9951 24.2202 94.5731 23.9019 94.261C23.5833 93.9432 23.1134 93.7844 22.4927 93.7844C21.9489 93.7844 21.4933 93.9211 21.1253 94.1952C20.7573 94.4689 20.5731 94.8006 20.5731 95.1897H19.0407C19.0407 94.746 19.1973 94.3185 19.5102 93.9073C19.8289 93.4911 20.2574 93.1624 20.7958 92.9212C21.3396 92.6804 21.9352 92.5595 22.5834 92.5595C23.6108 92.5595 24.4153 92.817 24.9975 93.3324C25.5797 93.8419 25.8817 94.546 25.9038 95.4443V99.5372C25.9038 100.354 26.0082 101.003 26.2171 101.485V101.617H24.6187ZM22.0893 100.458C22.5671 100.458 23.0203 100.335 23.4488 100.088C23.8769 99.8413 24.1872 99.5209 24.3798 99.1264V97.302H23.1848C21.3174 97.302 20.3835 97.8469 20.3835 98.9373C20.3835 99.4139 20.5431 99.7868 20.8613 100.055C21.18 100.323 21.5893 100.458 22.0893 100.458ZM31.869 100.54C32.4128 100.54 32.8881 100.375 33.2945 100.047C33.7008 99.718 33.926 99.3072 33.9698 98.8139H35.412C35.3845 99.3235 35.2086 99.8084 34.8845 100.269C34.5604 100.729 34.1265 101.096 33.5826 101.37C33.0443 101.644 32.4733 101.781 31.869 101.781C30.6552 101.781 29.6883 101.378 28.9687 100.573C28.2549 99.7618 27.8978 98.6552 27.8978 97.2524V96.9979C27.8978 96.1321 28.0569 95.3622 28.3756 94.6885C28.6943 94.0144 29.1499 93.4911 29.7434 93.1187C30.342 92.7458 31.0478 92.5595 31.8606 92.5595C32.8605 92.5595 33.69 92.8583 34.3491 93.4557C35.0136 94.0527 35.3678 94.8281 35.412 95.7813H33.9698C33.926 95.2059 33.7063 94.7347 33.3107 94.3677C32.9211 93.9952 32.4374 93.809 31.8606 93.809C31.0863 93.809 30.4848 94.0881 30.0563 94.6473C29.6336 95.2005 29.4218 96.0034 29.4218 97.0554V97.3428C29.4218 98.3673 29.6336 99.1564 30.0563 99.7097C30.4794 100.263 31.0837 100.54 31.869 100.54ZM39.1936 90.571V92.7241H40.858V93.8994H39.1936V99.4139C39.1936 99.7701 39.2679 100.038 39.4162 100.219C39.5645 100.395 39.8172 100.483 40.1743 100.483C40.3497 100.483 40.5915 100.45 40.8989 100.384V101.617C40.498 101.726 40.1083 101.781 39.729 101.781C39.0482 101.781 38.5345 101.575 38.1883 101.165C37.8424 100.754 37.6695 100.17 37.6695 99.4139V93.8994H36.0461V92.7241H37.6695V90.571H39.1936ZM56.29 101.617H54.6995L48.6605 92.3954V101.617H47.0704V89.6502H48.6605L54.7162 98.9127V89.6502H56.29V101.617ZM64.3643 101.617C64.2762 101.441 64.2048 101.129 64.1501 100.68C63.4413 101.414 62.5955 101.781 61.6123 101.781C60.7335 101.781 60.011 101.534 59.4455 101.041C58.8854 100.543 58.6051 99.9126 58.6051 99.151C58.6051 98.2252 58.9564 97.5074 59.6597 96.9979C60.3681 96.4825 61.3626 96.225 62.6423 96.225H64.1254V95.5268C64.1254 94.9951 63.9659 94.5731 63.6472 94.261C63.3289 93.9432 62.8591 93.7844 62.2384 93.7844C61.6946 93.7844 61.2389 93.9211 60.871 94.1952C60.503 94.4689 60.3188 94.8006 60.3188 95.1897H58.7864C58.7864 94.746 58.943 94.3185 59.2558 93.9073C59.5745 93.4911 60.0031 93.1624 60.5414 92.9212C61.0852 92.6804 61.6808 92.5595 62.329 92.5595C63.3561 92.5595 64.1609 92.817 64.7432 93.3324C65.3254 93.8419 65.6274 94.546 65.6495 95.4443V99.5372C65.6495 100.354 65.7539 101.003 65.9627 101.485V101.617H64.3643ZM61.8349 100.458C62.3128 100.458 62.7659 100.335 63.1945 100.088C63.6226 99.8413 63.9329 99.5209 64.1254 99.1264V97.302H62.9305C61.0631 97.302 60.1292 97.8469 60.1292 98.9373C60.1292 99.4139 60.2887 99.7868 60.607 100.055C60.9257 100.323 61.335 100.458 61.8349 100.458ZM70.1069 90.571V92.7241H71.7713V93.8994H70.1069V99.4139C70.1069 99.7701 70.1812 100.038 70.3295 100.219C70.4777 100.395 70.7304 100.483 71.0875 100.483C71.263 100.483 71.5048 100.45 71.8126 100.384V101.617C71.4112 101.726 71.0215 101.781 70.6423 101.781C69.9615 101.781 69.4478 101.575 69.1015 101.165C68.7557 100.754 68.5828 100.17 68.5828 99.4139V93.8994H66.9597V92.7241H68.5828V90.571H70.1069ZM75.2153 101.617H73.6909V92.7241H75.2153V101.617ZM73.5672 90.3652C73.5672 90.1189 73.6416 89.9106 73.7898 89.7406C73.9435 89.5707 74.1687 89.4861 74.4652 89.4861C74.7622 89.4861 74.9873 89.5707 75.141 89.7406C75.2947 89.9106 75.3715 90.1189 75.3715 90.3652C75.3715 90.6118 75.2947 90.8172 75.141 90.9818C74.9873 91.1459 74.7622 91.2284 74.4652 91.2284C74.1687 91.2284 73.9435 91.1459 73.7898 90.9818C73.6416 90.8172 73.5672 90.6118 73.5672 90.3652ZM80.6037 99.5539L82.8115 92.7241H84.3689L81.1721 101.617H80.0102L76.7808 92.7241H78.3378L80.6037 99.5539ZM89.4194 101.781C88.2111 101.781 87.2279 101.387 86.4698 100.598C85.7117 99.803 85.3329 98.7427 85.3329 97.417V97.1374C85.3329 96.2554 85.5004 95.4693 85.8354 94.7789C86.1758 94.0827 86.6482 93.5403 87.2525 93.1516C87.8623 92.757 88.5214 92.5595 89.2298 92.5595C90.3888 92.5595 91.2897 92.9403 91.9325 93.7019C92.5749 94.4635 92.8965 95.5538 92.8965 96.9729V97.6057H86.857C86.8791 98.4827 87.1343 99.1922 87.6234 99.7347C88.1175 100.271 88.744 100.54 89.5017 100.54C90.04 100.54 90.4961 100.43 90.8695 100.211C91.2429 99.9922 91.57 99.7018 91.8502 99.3401L92.7812 100.063C92.034 101.208 90.9134 101.781 89.4194 101.781ZM89.2298 93.809C88.6149 93.809 88.0983 94.0336 87.681 94.4827C87.2634 94.9268 87.0053 95.5513 86.9067 96.3567H91.372V96.2417C91.3281 95.4693 91.1193 94.8718 90.7459 94.4498C90.3725 94.0227 89.8671 93.809 89.2298 93.809Z" fill="#61DAFB"/>
</svg>
